<svg width="28" height="26" viewBox="0 0 28 26" fill="none" xmlns="http://www.w3.org/2000/svg">
<path d="M6.8414 25.6647V25.4729C6.8414 24.7385 6.84594 24.0039 6.84043 23.2695C6.82682 21.3971 6.09994 19.8318 4.75733 18.5505C4.34091 18.1532 3.85934 17.8252 3.42704 17.4438C1.63009 15.8575 0.490022 13.892 0.128362 11.5156C-0.336345 8.461 0.463132 5.74627 2.48757 3.41785C4.09235 1.57197 6.13461 0.481487 8.55215 0.110747C9.0146 0.0397771 9.4871 0.00640715 9.9554 0.00542715C13.6225 -0.00299285 17.2893 0.0008972 20.9564 0.0008972C21.0148 0.0008972 21.0731 0.0008972 21.1512 0.0008972C21.1512 0.0725072 21.1512 0.129867 21.1512 0.187557C21.1512 0.976007 21.1337 1.76511 21.1557 2.55292C21.2057 4.36089 21.9312 5.87525 23.2317 7.1116C23.6682 7.5267 24.1751 7.8666 24.6268 8.2672C26.346 9.7913 27.4245 11.6845 27.8351 13.9474C28.2052 15.9884 27.9543 17.9594 27.0829 19.8393C26.1477 21.8576 24.6874 23.3975 22.734 24.4614C21.2248 25.2833 19.6044 25.6683 17.8866 25.6663C14.2791 25.6621 10.6712 25.665 7.06371 25.665C6.99534 25.665 6.9263 25.6647 6.8414 25.6647ZM9.5717 19.8937V22.9769H9.7168C12.5252 22.9769 15.3332 22.9779 18.1416 22.9753C18.3678 22.9753 18.5956 22.9617 18.8202 22.9351C20.4956 22.7374 21.9555 22.0679 23.1471 20.8714C24.8527 19.1597 25.5715 17.0805 25.2575 14.6882C24.9778 12.5585 23.9009 10.8788 22.1377 9.6578C20.9224 8.8162 19.5665 8.3864 18.0794 8.3884C15.4224 8.392 12.7653 8.3894 10.1083 8.3894C10.0435 8.3894 9.9787 8.3887 9.9139 8.3916C8.98186 8.4351 8.2754 9.3891 8.50646 10.2916C8.68826 11.0007 9.3027 11.4716 10.0565 11.4719C12.6649 11.4732 15.2733 11.4754 17.8817 11.4709C19.1368 11.4686 20.1939 11.9155 21.0637 12.8193C22.2696 14.0732 22.5638 16.1213 21.7203 17.6457C20.9075 19.1143 19.6213 19.8633 17.9624 19.884C15.2464 19.918 12.5297 19.8931 9.8131 19.8931C9.7437 19.8931 9.6748 19.8937 9.5717 19.8937ZM18.4404 2.68838C18.3587 2.68838 18.2946 2.68838 18.2304 2.68838C15.5031 2.68838 12.7754 2.69195 10.048 2.68676C8.79164 2.68449 7.61495 2.9781 6.50762 3.57017C3.9799 4.92185 2.44868 7.7581 2.72705 10.617C2.91955 12.5941 3.77833 14.2404 5.28945 15.5253C6.62331 16.6599 8.17299 17.251 9.9379 17.2419C10.8504 17.237 11.7633 17.2409 12.6762 17.2409C14.4369 17.2409 16.1975 17.2438 17.9582 17.2396C18.9514 17.2373 19.6916 16.2684 19.4421 15.3082C19.2632 14.6195 18.6426 14.1584 17.8853 14.1581C15.2713 14.1568 12.6571 14.159 10.0432 14.1552C9.7959 14.1548 9.5464 14.1347 9.302 14.0978C6.6797 13.7011 5.06876 10.8869 6.05133 8.4253C6.68942 6.8274 8.32401 5.73785 10.0937 5.73687C12.8049 5.73525 15.5163 5.73655 18.2275 5.73655C18.2959 5.73655 18.3646 5.73655 18.4401 5.73655L18.4404 2.68838Z" fill="#262525"/>
</svg>
