<svg width="262" height="196" viewBox="0 0 262 196" fill="none" xmlns="http://www.w3.org/2000/svg">
<path fill-rule="evenodd" clip-rule="evenodd" d="M117.371 1.38126C112.921 3.25234 108.92 7.06427 106.725 11.5248C105.341 14.3363 105.069 15.6959 105.074 19.785C105.079 23.8771 105.37 25.3083 106.846 28.5114C113.869 43.7506 136.567 44.0632 144.453 29.0291C145.873 26.3215 146.093 25.167 146.104 20.3968C146.113 15.702 145.876 14.3797 144.491 11.4299C142.567 7.33044 138.881 3.56929 134.9 1.64252C132.713 0.583996 130.704 0.204021 126.511 0.0541142C121.741 -0.116597 120.507 0.0626842 117.371 1.38126ZM160.635 1.8573C159.45 3.04065 159.781 5.30332 161.278 6.24682C162.037 6.72468 164.311 7.58191 166.332 8.15156C170.805 9.41139 181.463 13.7238 186.764 16.4185C190.03 18.0785 190.89 18.2883 192.125 17.7267C193.605 17.053 194.072 15.0577 193.105 13.5378C192.036 11.8589 176.855 5.06348 168.259 2.41654C163.47 0.941334 161.683 0.810394 160.635 1.8573ZM121.795 4.40326C106.662 8.59455 104.783 27.6071 118.796 34.7469C122.544 36.6566 125.994 36.8463 130.652 35.3986C135.52 33.8848 138.471 31.2862 140.666 26.5779C143.37 20.7774 142.393 14.5303 138.022 9.6751C133.587 4.74958 127.586 2.79956 121.795 4.40326ZM123.09 7.20073C115.187 8.73774 110.492 17.9671 113.888 25.2918C119.749 37.936 138.568 33.987 138.673 20.0909C138.736 11.8748 131.183 5.62701 123.09 7.20073ZM148.476 12.5955C148.641 13.1842 148.94 14.2433 149.141 14.9482C149.419 15.9204 150.355 16.4179 153.018 17.0083C168.083 20.3473 188.02 30.8965 201.142 42.4724C217.457 56.8653 230.501 79.2835 235.168 100.948C236.245 105.947 236.294 106.032 238.358 106.454C239.511 106.69 240.577 106.759 240.728 106.608C240.879 106.458 240.656 104.207 240.234 101.607C239.266 95.6625 234.746 82.0748 231.332 74.853C217.195 44.9425 190.333 22.5243 157.648 13.3579C149.96 11.2023 148.043 11.0426 148.476 12.5955ZM87.3016 14.529C67.6903 21.456 51.6782 31.6637 38.5156 45.6308C22.9012 62.1996 12.0041 85.0925 9.50209 106.583C9.1198 109.869 8.81592 110.435 5.82991 113.417C1.74787 117.494 0 121.784 0 127.726C0 137.484 5.32263 144.384 15.264 147.512C18.8038 148.626 19.6064 149.124 19.9231 150.403C20.583 153.073 25.0154 163.701 27.6522 168.94C35.4787 184.487 50.0915 200.524 65.5527 210.536C71.602 214.453 80.8002 219.104 88.2205 221.999C94.206 224.334 94.8781 224.78 93.8862 225.771C92.2842 227.371 73.2181 218.854 62.737 211.857C41.2596 197.517 25.0657 176.166 17.763 152.56C16.7184 149.184 16.2589 148.865 14.6936 150.428C13.608 151.512 13.3997 152.258 13.6534 154.15C14.0301 156.954 16.3778 162.044 17.2943 162.044C18.5716 162.044 19.566 164.243 19.585 167.11C19.634 174.44 33.4478 193.888 47.2721 206.087C82.6547 237.309 134.515 244.892 176.891 225.038C182.824 222.259 196.447 213.662 200.805 209.947L202.808 208.24L201.208 206.522L199.607 204.805L197.673 206.337C189.247 213.008 168.308 224.821 166.283 224.045C164.163 223.232 165.852 221.806 172.918 218.441C180.247 214.951 193.945 206.319 196.314 203.697L197.501 202.383L193.267 198.122C190.938 195.779 188.852 193.861 188.63 193.861C188.408 193.861 184.955 196.029 180.956 198.679C172.423 204.333 164.561 208.714 163.984 208.138C163.116 207.271 163.713 206.791 167.711 205.139C169.985 204.2 172.083 203.23 172.372 202.986C173.204 202.28 169.146 195.278 166.546 192.932C164.408 191.004 163.84 190.802 160.547 190.802C158.546 190.802 156.721 190.498 156.49 190.126C156.261 189.754 155.934 187.725 155.764 185.616L155.456 181.781L151.768 181.397C149.74 181.185 131.372 181.006 110.951 180.998C76.0136 180.985 73.6745 180.918 71.3018 179.841C68.5437 178.59 66.1115 175.749 65.0246 172.507C64.0861 169.707 64.0414 74.6835 64.9769 71.3182C65.7764 68.4418 68.8782 64.841 71.4966 63.7482C73.1091 63.0751 83.3941 62.9216 126.758 62.9216C162.912 62.9216 180.592 63.1308 181.762 63.5726C184.214 64.4977 186.825 67.1092 188.145 69.958C189.169 72.1675 189.281 74.205 189.293 90.9144L189.307 109.423H186.837C183.254 109.423 183.195 110.602 186.551 115.062C192.001 122.303 194.208 128.498 194.208 136.557C194.208 142.861 193.303 146.764 190.463 152.705C182.623 169.107 164.379 177.288 146.432 172.45C133.828 169.053 122.958 156.868 120.241 143.091C119.353 138.59 119.352 137.636 120.232 132.254C122.374 119.167 131.838 107.653 144.307 102.966C153.176 99.6311 162.104 99.7553 171.43 103.342C176.05 105.119 177.7 105.058 179.036 103.06C179.283 102.69 179.49 96.1532 179.495 88.5349C179.504 75.8001 179.41 74.566 178.333 73.2382L177.162 71.7936H127.637C88.4172 71.7936 77.8252 71.957 76.7335 72.5799L75.355 73.3661V113.999V154.632L76.7169 155.584C77.8828 156.4 81.003 156.537 98.4425 156.537H118.807L121.204 160.062C132.874 177.224 155.719 183.527 175.409 175.015L178.971 173.475L183.261 177.702C187.386 181.767 187.537 182.02 187.191 184.258C186.958 185.763 187.164 187.288 187.773 188.57C188.292 189.662 194.708 196.504 202.03 203.776C215.844 217.494 216.977 218.322 221.949 218.332C226.651 218.342 231.734 214.282 233.162 209.378C234.968 203.174 233.945 201.614 217.477 185.448L204.232 172.446H200.887C197.596 172.446 197.481 172.384 193.73 168.605C191.635 166.493 189.919 164.566 189.919 164.323C189.919 164.081 190.887 162.537 192.07 160.894C201.014 148.46 201.997 131.694 194.603 117.684C193.359 115.325 193.311 114.418 193.295 92.903C193.278 71.5134 193.223 70.4518 191.987 67.7737C191.279 66.236 189.651 63.9617 188.37 62.7197C184.028 58.5076 186.015 58.6385 126.318 58.6385C87.4296 58.6385 72.0896 58.8331 70.3669 59.3489C67.2798 60.2722 63.4054 63.6197 61.728 66.8112C60.7411 68.6896 60.3104 70.8513 60.0641 75.1589L59.7326 80.9716L55.4441 81.3442C50.2692 81.7934 48.6273 82.4126 45.6186 85.0509C42.0193 88.2075 41.6597 89.6889 41.6597 101.355C41.6597 107.035 41.479 114.223 41.2584 117.327C40.8688 122.815 40.8363 122.91 40.0944 120.754C38.9285 117.367 36.2672 113.9 32.9865 111.495C29.3903 108.858 29.356 108.501 31.7808 98.9342C35.8684 82.8054 45.7056 66.5548 58.4136 54.9385C70.2205 44.1452 81.2094 37.9348 97.4101 32.8997C100.948 31.7996 103.94 30.8261 104.059 30.7362C104.177 30.6456 103.855 29.2463 103.342 27.626C102.829 26.0058 102.232 23.3723 102.017 21.7735C101.541 18.2529 101.534 18.2516 93.3538 20.6183C72.2551 26.7223 52.3166 40.1289 38.6332 57.4129C32.6704 64.9444 30.8704 67.7602 26.9367 75.7108C21.8505 85.9902 20.2117 90.9328 16.817 106.233C16.526 107.545 15.7768 108.028 12.406 109.077C10.5319 109.66 10.63 108.509 12.6112 106.676C13.8371 105.541 14.5178 103.788 15.6291 98.9036C18.6292 85.7166 23.3282 74.946 31.265 63.0611C39.437 50.8256 47.0614 42.9998 59.4263 34.1583C67.8992 28.099 77.3584 23.3442 88.8332 19.375C94.3929 17.4519 98.4657 15.8629 97.8837 15.8433C97.3017 15.8238 96.3742 15.1195 95.8222 14.2782C94.554 12.3447 93.3888 12.3789 87.3016 14.529ZM218.156 14.5517C215.627 15.1807 214.164 17.8405 214.14 21.8476C214.114 26.1771 215.211 28.4178 217.772 29.2616C220.1 30.0288 223.333 29.1031 224.24 27.4094C225.294 25.4435 224.943 22.0293 223.543 20.6318C222.514 19.6033 221.751 19.4032 219.833 19.6601C217.872 19.9233 217.454 19.8052 217.607 19.0324C217.925 17.4195 219.759 16.6247 221.154 17.4948C223.537 18.9816 225.059 18.0638 223.715 15.9498C223.038 14.8839 219.946 14.1069 218.156 14.5517ZM229.364 14.8484C224.462 16.9832 225.118 28.1278 230.222 29.4182C234.467 30.4914 237.07 27.6493 237.082 21.9265C237.088 18.3244 235.408 14.5841 233.782 14.5841C233.299 14.5841 232.537 14.4562 232.089 14.3002C231.64 14.1448 230.414 14.3908 229.364 14.8484ZM203.857 15.2449C202.542 16.0098 202.434 18.2553 203.712 18.2553C204.222 18.2553 205.15 17.9365 205.775 17.5468C206.4 17.157 207.381 17.0187 207.956 17.239C209.451 17.8123 208.875 19.6663 207.07 20.0915C204.851 20.6147 204.993 22.7813 207.262 23.0413C209.245 23.2683 210.002 24.5912 208.904 25.9116C207.933 27.0803 206.21 27.0766 205.235 25.9036C204.377 24.8708 203.481 24.7576 202.262 25.5292C200.946 26.3619 202.429 28.4453 204.924 29.2671C207.508 30.1194 211.028 29.1998 211.979 27.4247C212.851 25.7978 212.728 23.3791 211.724 22.3756C211.163 21.8158 211.052 21.2094 211.408 20.6489C212.32 19.2098 212.042 16.6706 210.854 15.5968C209.603 14.466 205.546 14.2623 203.857 15.2449ZM239.332 15.7032C237.956 17.2206 238.054 19.8278 239.543 21.3146C241.069 22.8382 242.672 22.8706 244.473 21.415C246.178 20.0365 246.291 16.5513 244.671 15.3679C243.125 14.2396 240.509 14.4036 239.332 15.7032ZM241.007 17.2922C240.45 18.743 241.238 20.2078 242.451 19.9747C243.13 19.8443 243.525 19.2104 243.525 18.2553C243.525 16.5109 241.592 15.7717 241.007 17.2922ZM230.139 17.4954C229.31 18.8354 229.087 22.7011 229.727 24.6401C231.095 28.7788 234.029 26.9279 234.029 21.9265C234.029 20.5363 233.744 18.8659 233.395 18.2149C232.77 17.0493 230.698 16.591 230.139 17.4954ZM149.485 20.9053C149.485 22.0801 148.944 24.7748 148.284 26.8936C147.624 29.0125 147.141 30.7827 147.212 30.8267C147.283 30.8714 150.787 32.0688 154.999 33.4871C175.144 40.2727 191.413 51.8657 203.604 68.1224C210.81 77.7324 218.263 94.4902 219.997 104.985L220.73 109.418L217.907 111.9C216.151 113.443 214.321 115.929 213.069 118.47C211.265 122.13 211.057 123.101 211.067 127.768C211.08 133.896 212.301 136.982 216.602 141.76L219.295 144.751L217.45 150.491C216.436 153.648 213.791 159.888 211.574 164.357L207.541 172.482L211.98 176.735C214.422 179.073 216.65 180.845 216.932 180.671C217.674 180.213 223.774 169.138 225.787 164.594C226.731 162.462 228.49 157.919 229.696 154.498C231.559 149.216 232.106 148.246 233.323 148.074C234.471 147.912 234.687 148.095 234.41 148.992C234.22 149.608 233.474 152.04 232.753 154.396C230.915 160.398 226.271 170.481 222.184 177.341L218.721 183.153L220.366 184.493C221.271 185.231 222.261 185.68 222.566 185.491C223.524 184.9 228.257 177.243 230.819 172.14C233.696 166.407 238.725 152.839 239.298 149.261C239.634 147.16 240.098 146.539 242.292 145.254C250.81 140.269 254.502 128.591 250.394 119.63C247.792 113.954 241.571 108.939 235.209 107.391C233.795 107.046 233.522 106.485 232.56 101.943C226.618 73.8611 208.477 48.2123 183.678 32.8275C174.508 27.1384 159.737 20.8784 151.476 19.1792C149.531 18.7797 149.485 18.8201 149.485 20.9053ZM218.56 22.3842C217.139 22.7072 217.084 26.0927 218.49 26.6324C220.834 27.5306 222.971 23.7848 220.742 22.6871C220.132 22.386 219.15 22.2502 218.56 22.3842ZM221.514 41.2438C220.019 42.7373 220.366 44.7369 222.575 47.3618C231.915 58.4562 241.364 74.3457 246.847 88.177C249.277 94.3066 249.265 95.1779 246.742 95.8308C245.156 96.2414 244.751 96.6611 244.751 97.8946C244.751 99.1061 246.051 100.523 250.734 104.41C256.604 109.283 258.169 109.921 258.754 107.684C262.432 93.6128 262.452 93.4941 261.4 92.4423C260.514 91.5575 260.105 91.53 258.174 92.2275C256.958 92.6668 255.757 92.7923 255.507 92.5059C255.256 92.2196 254.41 90.3332 253.628 88.314C247.669 72.9372 236.122 53.1403 227.309 43.1889C224.611 40.1418 223.119 39.6413 221.514 41.2438ZM79.9927 44.7644C79.2165 45.331 78.9978 46.2305 79.1424 48.2588C79.3268 50.8427 79.4364 50.9902 81.1751 50.9902C82.9297 50.9902 83.0216 50.8598 83.1981 48.1223C83.3476 45.8076 83.1576 45.134 82.2105 44.628C81.3736 44.1807 80.7389 44.2199 79.9927 44.7644ZM89.2926 44.6157C87.9846 45.3751 87.8578 46.671 89.1395 46.1797C89.8716 45.8994 90.0584 46.3828 90.0584 48.5617C90.0584 50.6237 90.2919 51.2961 91.008 51.2961C91.7757 51.2961 91.9221 50.631 91.7738 47.8262C91.5821 44.2089 91.0901 43.5719 89.2926 44.6157ZM98.4823 44.6145C96.4011 45.8254 97.5584 51.908 99.8699 51.908C100.717 51.908 102.311 49.3112 102.311 47.9308C102.311 46.6294 100.726 43.9396 99.979 43.9721C99.7455 43.9825 99.0716 44.2712 98.4823 44.6145ZM108.248 44.6598C107.563 45.0422 107.216 46.0059 107.222 47.5025C107.234 50.4364 107.924 51.4521 109.732 51.1964C110.826 51.0422 111.245 50.5466 111.396 49.2335C111.823 45.4944 110.415 43.4483 108.248 44.6598ZM117.474 44.6145C116.749 45.0367 116.402 45.9955 116.402 47.5802C116.402 50.1152 117.525 51.5213 119.283 51.1884C121.274 50.8109 120.936 43.8754 118.931 43.9721C118.719 43.9825 118.064 44.2712 117.474 44.6145ZM126.583 44.743C125.17 45.7746 125.432 49.9628 126.97 50.9253C129.584 52.5596 131.765 47.5961 129.522 45.1199C128.271 43.7395 128.004 43.7053 126.583 44.743ZM136.129 44.6879C135.059 45.7569 135.215 49.7744 136.364 50.7271C138.722 52.6808 140.992 47.185 138.752 44.9474C137.564 43.761 137.103 43.7151 136.129 44.6879ZM145.656 44.6145C144.397 45.3469 144.166 49.4109 145.319 50.5618C146.453 51.6944 148.142 51.4331 148.906 50.0081C149.781 48.3757 149.14 44.7993 147.886 44.319C146.747 43.8821 146.965 43.8533 145.656 44.6145ZM154.623 45.5023C153.842 46.6943 153.737 47.505 154.171 49.0169C155.225 52.6838 158.674 51.654 158.674 47.6726C158.674 43.9378 156.436 42.7391 154.623 45.5023ZM164.334 45.2765C162.532 47.0767 164.101 51.6381 166.373 51.2013C167.356 51.0122 167.558 50.4523 167.558 47.9223C167.558 45.3322 167.371 44.8446 166.325 44.6953C165.648 44.598 164.751 44.8599 164.334 45.2765ZM80.4914 46.6716C80.0381 47.8519 80.4161 49.496 81.1751 49.6459C81.5121 49.712 81.8742 48.8719 81.9795 47.7779C82.1737 45.7673 81.1353 44.9951 80.4914 46.6716ZM99.2481 47.9669C99.2481 49.2629 99.4962 49.9916 99.8607 49.7664C100.198 49.5584 100.473 48.5788 100.473 47.5888C100.473 46.5988 100.198 45.7893 99.8607 45.7893C99.5238 45.7893 99.2481 46.7695 99.2481 47.9669ZM108.846 46.1974C108.218 46.8246 108.362 49.3418 109.05 49.7664C109.415 49.9916 109.663 49.2629 109.663 47.9669C109.663 45.7306 109.553 45.4919 108.846 46.1974ZM118.036 46.1974C117.408 46.8246 117.552 49.3418 118.24 49.7664C118.605 49.9916 118.853 49.2629 118.853 47.9669C118.853 45.7306 118.742 45.4919 118.036 46.1974ZM127.231 46.6484C126.779 47.8237 127.442 50.1372 128.112 49.7236C128.822 49.2849 128.818 45.7893 128.108 45.7893C127.807 45.7893 127.412 46.176 127.231 46.6484ZM137.028 46.1974C136.4 46.8246 136.544 49.3418 137.232 49.7664C137.596 49.9916 137.845 49.2629 137.845 47.9669C137.845 45.7306 137.734 45.4919 137.028 46.1974ZM146.422 47.9308C146.422 49.1087 146.697 50.0724 147.034 50.0724C147.371 50.0724 147.647 49.1087 147.647 47.9308C147.647 46.753 147.371 45.7893 147.034 45.7893C146.697 45.7893 146.422 46.753 146.422 47.9308ZM155.886 46.5688C155.398 47.8378 155.745 49.4911 156.53 49.6459C157.384 49.8142 157.694 47.013 156.908 46.228C156.458 45.7783 156.15 45.8805 155.886 46.5688ZM165.456 48.0838C165.495 49.5749 165.559 49.6269 166.026 48.5427C166.745 46.8717 166.745 46.4012 166.026 46.4012C165.689 46.4012 165.433 47.1587 165.456 48.0838ZM147.8 83.2478C146.069 84.0817 145.948 85.5698 147.647 85.1262C148.788 84.8282 148.872 85.1072 148.872 89.1602C148.872 91.6554 149.134 93.5149 149.485 93.5149C149.848 93.5149 150.097 91.2712 150.097 88.0081C150.097 84.9793 149.891 82.5196 149.638 82.5429C149.385 82.5655 148.558 82.8831 147.8 83.2478ZM154.814 83.5904C153.626 84.9016 153.37 90.3962 154.407 92.3315C155.182 93.7774 158.18 93.9212 159.525 92.5775C160.979 91.1261 161.388 87.6532 160.411 85.0754C159.712 83.2355 159.201 82.7729 157.703 82.6243C156.496 82.5049 155.494 82.8403 154.814 83.5904ZM163.925 83.4625C162.719 84.6679 162.642 90.901 163.816 92.4441C164.82 93.7651 167.454 93.8367 168.715 92.5775C170.555 90.7407 170.699 85.3563 168.965 83.2698C168.073 82.196 165.079 82.3104 163.925 83.4625ZM202.295 83.8474C200.43 85.7099 202.749 87.8447 205.502 86.7996C208.01 85.847 207.131 83.1132 204.316 83.1132C203.609 83.1132 202.699 83.4436 202.295 83.8474ZM97.6834 84.3901C97.4573 84.756 97.5547 85.3379 97.9003 85.683C98.6734 86.4552 99.8607 85.8029 99.8607 84.6067C99.8607 83.5763 98.2838 83.4197 97.6834 84.3901ZM102.311 84.1337C102.817 84.3461 103.458 84.8233 103.736 85.1935C104.062 85.6261 104.153 85.5392 103.992 84.9487C103.854 84.444 103.213 83.9667 102.567 83.889C101.742 83.7887 101.666 83.8615 102.311 84.1337ZM109.4 84.2677C109.215 84.5657 109.486 85.1598 110.002 85.5875C111.288 86.654 112.762 85.3489 111.587 84.1839C110.969 83.5702 110.903 83.6473 111.256 84.5731C111.578 85.4187 111.465 85.6438 110.833 85.4144C110.358 85.2424 110.039 84.7921 110.122 84.4134C110.305 83.5922 109.872 83.5047 109.4 84.2677ZM114.72 84.9261C114.092 85.9308 114.118 86.0703 114.88 85.7784C115.38 85.5869 115.789 85.046 115.789 84.5773C115.789 83.4423 115.612 83.5005 114.72 84.9261ZM118.465 84.2047C118.692 84.5724 118.39 85.1574 117.793 85.5043C117.197 85.8512 117.019 86.1437 117.399 86.1541C118.579 86.1859 119.647 84.5217 118.788 83.9912C118.335 83.7116 118.211 83.7942 118.465 84.2047ZM120.953 84.9041C120.953 85.552 121.17 85.9492 121.434 85.7858C121.699 85.6218 121.916 85.0919 121.916 84.6067C121.916 84.1215 121.699 83.725 121.434 83.725C121.17 83.725 120.953 84.2555 120.953 84.9041ZM123.414 84.3901C123.188 84.756 123.278 85.3306 123.615 85.6671C124.024 86.0752 124.385 86.0256 124.698 85.5196C125.023 84.9946 124.917 84.9145 124.357 85.2608C123.768 85.6243 123.653 85.4823 123.937 84.7432C124.377 83.5984 124.044 83.3738 123.414 84.3901ZM126.817 84.6428C126.817 85.1476 126.925 85.5606 127.058 85.5606C127.19 85.5606 127.457 85.1476 127.651 84.6428C127.845 84.138 127.737 83.725 127.411 83.725C127.084 83.725 126.817 84.138 126.817 84.6428ZM131.105 84.6067C131.105 85.0919 131.322 85.6218 131.587 85.7858C131.852 85.9492 132.068 85.552 132.068 84.9041C132.068 84.2555 131.852 83.725 131.587 83.725C131.322 83.725 131.105 84.1215 131.105 84.6067ZM134.596 84.5773C134.345 85.2143 134.285 85.88 134.46 86.0562C135.02 86.6143 135.511 85.6995 135.277 84.5376C135.063 83.4729 135.029 83.4748 134.596 84.5773ZM137.845 84.6428C137.845 85.1476 137.953 85.5606 138.085 85.5606C138.218 85.5606 138.485 85.1476 138.679 84.6428C138.873 84.138 138.764 83.725 138.438 83.725C138.112 83.725 137.845 84.138 137.845 84.6428ZM155.633 84.9084C154.721 86.6093 154.852 90.0248 155.881 91.4094C157.33 93.3576 158.941 91.8622 159.169 88.3568C159.437 84.2665 157.164 82.0509 155.633 84.9084ZM164.736 85.4076C164.02 87.2702 164.395 90.9071 165.408 91.9185C166.693 93.2022 168.158 91.4345 168.359 88.3568C168.645 83.9802 166.086 81.8974 164.736 85.4076ZM98.0228 84.9487C98.0228 85.2853 98.2985 85.5606 98.6354 85.5606C98.9724 85.5606 99.2481 85.2853 99.2481 84.9487C99.2481 84.6122 98.9724 84.3369 98.6354 84.3369C98.2985 84.3369 98.0228 84.6122 98.0228 84.9487ZM203.091 84.9487C202.883 85.2853 203.296 85.5606 204.01 85.5606C204.724 85.5606 205.137 85.2853 204.929 84.9487C204.721 84.6122 204.307 84.3369 204.01 84.3369C203.713 84.3369 203.299 84.6122 203.091 84.9487ZM49.7404 86.8003C45.9843 89.0868 45.9482 89.4007 45.9494 119.347C45.95 143.921 46.0499 146.64 47.0215 148.571C48.7235 151.955 51.5557 153.478 56.1475 153.478H60.039V119.519V85.5606L55.9036 85.5631C52.8373 85.5649 51.2439 85.8843 49.7404 86.8003ZM89.719 91.7325C89.0464 92.8198 90.5277 93.9034 91.4369 92.9893C92.0514 92.3713 91.9699 92.3071 91.024 92.6668C90.0879 93.0236 89.9267 92.9049 90.2392 92.0917C90.6809 90.942 90.3494 90.7138 89.719 91.7325ZM118.853 92.2911C119.213 92.9642 119.772 93.5149 120.093 93.5149C120.415 93.5149 120.207 92.9642 119.629 92.2911C119.052 91.6181 118.494 91.0674 118.389 91.0674C118.283 91.0674 118.492 91.6181 118.853 92.2911ZM128.477 92.2911C128.654 92.9642 128.904 93.5149 129.033 93.5149C129.162 93.5149 129.268 92.9642 129.268 92.2911C129.268 91.6181 129.018 91.0674 128.713 91.0674C128.407 91.0674 128.301 91.6181 128.477 92.2911ZM94.1252 92.5971C93.9316 93.1019 94.04 93.5149 94.3659 93.5149C94.6925 93.5149 94.9596 93.1019 94.9596 92.5971C94.9596 92.0923 94.8511 91.6793 94.7188 91.6793C94.5865 91.6793 94.3194 92.0923 94.1252 92.5971ZM108.106 92.3321C107.884 92.6907 107.834 93.1159 107.994 93.2762C108.155 93.4366 108.449 93.1429 108.649 92.6234C109.063 91.5453 108.71 91.3556 108.106 92.3321ZM110.324 92.6479C110.353 93.3607 110.499 93.5057 110.694 93.018C110.871 92.5763 110.849 92.0482 110.646 91.8451C110.442 91.642 110.298 92.003 110.324 92.6479ZM112.114 92.3272C112.114 92.6833 112.389 92.8051 112.726 92.5971C113.063 92.389 113.339 92.0978 113.339 91.9491C113.339 91.8004 113.063 91.6793 112.726 91.6793C112.389 91.6793 112.114 91.9711 112.114 92.3272ZM113.73 92.5971C113.536 93.1019 113.645 93.5149 113.97 93.5149C114.297 93.5149 114.564 93.1019 114.564 92.5971C114.564 92.0923 114.456 91.6793 114.323 91.6793C114.191 91.6793 113.924 92.0923 113.73 92.5971ZM122.778 92.4288C122.982 93.4323 124.492 93.4439 124.826 92.4441C124.966 92.0238 124.766 91.6793 124.381 91.6793C123.996 91.6793 123.852 91.9546 124.06 92.2911C124.268 92.6277 124.17 92.903 123.841 92.903C123.512 92.903 123.103 92.6209 122.932 92.2759C122.761 91.9308 122.691 91.9999 122.778 92.4288ZM126.817 92.2551C126.817 92.572 127.09 92.9991 127.423 93.2047C127.77 93.4188 127.873 93.1735 127.664 92.6289C127.256 91.5691 126.817 91.3752 126.817 92.2551ZM201.559 94.4327C200.333 95.9085 201.908 97.287 204.565 97.0643C206.902 96.8679 207.977 95.0751 206.367 94.0564C205.052 93.2236 202.391 93.4323 201.559 94.4327ZM203.397 95.3505C203.397 95.687 203.827 95.9623 204.352 95.9623C204.877 95.9623 205.137 95.687 204.929 95.3505C204.721 95.014 204.291 94.7386 203.974 94.7386C203.656 94.7386 203.397 95.014 203.397 95.3505ZM89.4458 100.486C89.4458 100.955 89.8985 101.511 90.4511 101.724C91.2464 102.028 91.3113 101.934 90.763 101.274C90.3813 100.814 90.2502 100.258 90.472 100.036C90.6938 99.8147 90.5535 99.6335 90.1608 99.6335C89.7674 99.6335 89.4458 100.017 89.4458 100.486ZM94.3953 100.602C94.4248 101.315 94.57 101.46 94.7654 100.972C94.9424 100.531 94.9204 100.002 94.717 99.7994C94.5136 99.5962 94.369 99.9572 94.3953 100.602ZM95.6206 100.602C95.65 101.315 95.7952 101.46 95.9907 100.972C96.1677 100.531 96.1457 100.002 95.9423 99.7994C95.7389 99.5962 95.5943 99.9572 95.6206 100.602ZM97.8188 100.042C97.1957 100.663 97.3317 101.469 98.0589 101.469C98.4155 101.469 98.5086 101.147 98.2648 100.753C97.967 100.272 98.1557 100.165 98.8413 100.428C99.4019 100.643 99.8607 100.552 99.8607 100.226C99.8607 99.5534 98.4363 99.4243 97.8188 100.042ZM106.045 100.209C105.482 100.557 105.446 100.829 105.922 101.123C106.295 101.353 106.604 101.181 106.609 100.74C106.616 100.159 106.781 100.19 107.212 100.857C107.569 101.409 107.81 101.484 107.816 101.046C107.829 100.021 106.992 99.625 106.045 100.209ZM109.944 100.286C109.722 100.645 109.706 101.104 109.908 101.306C110.11 101.508 110.276 101.352 110.276 100.959C110.276 100.567 110.581 100.245 110.954 100.245C111.347 100.245 111.46 100.696 111.224 101.316C110.913 102.132 110.986 102.218 111.534 101.675C112.27 100.946 111.855 99.6335 110.888 99.6335C110.591 99.6335 110.166 99.9272 109.944 100.286ZM117.627 100.209C117.627 100.526 117.946 100.981 118.335 101.221C118.755 101.481 118.877 101.391 118.633 100.998C118.409 100.635 118.711 100.212 119.305 100.057C120.126 99.8428 120.055 99.7584 119.006 99.7045C118.247 99.6654 117.627 99.8924 117.627 100.209ZM128.051 100.092C128.057 100.345 128.32 100.961 128.637 101.461C129.09 102.176 129.191 102.079 129.11 101.002C129.019 99.7896 128.028 98.9379 128.051 100.092ZM123.141 100.821C123.141 101.138 123.371 101.539 123.651 101.712C123.933 101.885 124.162 101.626 124.162 101.136C124.162 100.646 123.933 100.245 123.651 100.245C123.371 100.245 123.141 100.504 123.141 100.821ZM201.559 104.834C199.796 106.956 204.202 108.619 206.718 106.781C207.752 106.026 207.757 105.911 206.791 104.946C205.512 103.669 202.58 103.606 201.559 104.834ZM203.074 105.725C203.274 106.047 203.841 106.155 204.336 105.966C205.602 105.481 205.453 105.14 203.974 105.14C203.28 105.14 202.875 105.403 203.074 105.725ZM150.404 106.388C133.669 109.814 121.972 126.693 125.275 142.647C127.708 154.398 135.346 163.096 146.695 167.042C165.708 173.653 185.598 161.441 188.737 141.228C190.6 129.239 183.78 115.696 172.947 109.869C166.626 106.469 157.151 105.006 150.404 106.388ZM89.7521 107.588C89.2694 108.369 89.9108 109.426 90.8604 109.414C91.3401 109.408 91.3009 109.221 90.7458 108.87C90.2814 108.577 90.0909 108.03 90.3225 107.656C90.5541 107.282 90.6055 106.976 90.437 106.976C90.2686 106.976 89.9604 107.251 89.7521 107.588ZM92.7902 107.629C92.5678 107.987 92.5519 108.446 92.7541 108.648C92.9562 108.85 93.1217 108.714 93.1217 108.347C93.1217 107.979 93.6044 107.552 94.1938 107.398C95.1605 107.145 95.1642 107.111 94.2299 107.047C93.6602 107.008 93.012 107.27 92.7902 107.629ZM97.5069 108.2C97.5069 109.041 97.646 109.385 97.8157 108.965C97.986 108.544 97.986 107.856 97.8157 107.435C97.646 107.014 97.5069 107.358 97.5069 108.2ZM101.98 107.629C101.757 107.987 101.707 108.413 101.868 108.573C102.028 108.733 102.323 108.44 102.523 107.92C102.937 106.842 102.584 106.652 101.98 107.629ZM104.161 107.908C104.588 108.421 105.063 108.715 105.217 108.561C105.642 108.137 104.778 106.976 104.038 106.976C103.632 106.976 103.678 107.327 104.161 107.908ZM106.906 107.588C106.423 108.369 107.065 109.426 108.014 109.414C108.455 109.408 108.38 109.166 107.825 108.802C107.008 108.266 107.008 108.133 107.825 107.597C108.38 107.234 108.455 106.991 108.014 106.985C107.613 106.98 107.114 107.251 106.906 107.588ZM113.037 107.581C112.822 107.927 113.068 108.03 113.613 107.822C114.674 107.415 114.869 106.976 113.988 106.976C113.67 106.976 113.243 107.248 113.037 107.581ZM120.953 108.244C120.953 108.893 121.17 109.423 121.434 109.423C121.699 109.423 121.916 109.027 121.916 108.542C121.916 108.056 121.699 107.527 121.434 107.363C121.17 107.199 120.953 107.596 120.953 108.244ZM99.5293 108.241C99.3069 108.599 99.2567 109.024 99.4172 109.185C99.5777 109.345 99.8724 109.051 100.072 108.532C100.486 107.454 100.133 107.264 99.5293 108.241ZM109.663 108.164C109.663 108.481 109.936 108.908 110.269 109.113C110.616 109.327 110.719 109.082 110.51 108.537C110.102 107.478 109.663 107.284 109.663 108.164ZM13.7845 113.311C7.49017 116.244 3.88232 122.367 4.43063 129.185C4.7976 133.755 5.94753 136.191 9.24416 139.387C16.8973 146.804 30.2639 144.228 35.173 134.388C41.6719 121.363 27.1701 107.072 13.7845 113.311ZM224.349 113.454C218.979 116.127 215.038 122.191 215.038 127.779C215.038 130.687 216.803 135.382 218.804 137.799C221.22 140.717 227.221 143.687 230.702 143.687C239.992 143.689 247.516 136.636 247.501 127.939C247.482 116.165 234.819 108.244 224.349 113.454ZM152.854 114.569C147.411 115.916 140.295 120.501 140.295 122.661C140.295 124.53 142.232 124.26 144.474 122.079C149.28 117.403 156.878 115.709 163.269 117.889C166.348 118.939 167.081 119.008 167.782 118.321C168.486 117.628 168.358 117.329 166.967 116.418C165.064 115.173 159.741 113.682 157.469 113.758C156.615 113.787 154.539 114.152 152.854 114.569ZM201.179 115.209C200.559 116.822 202.151 118.07 204.57 117.868C206.456 117.71 206.767 117.467 206.767 116.154C206.767 114.791 206.482 114.603 204.158 114.436C202.228 114.296 201.452 114.498 201.179 115.209ZM16.235 115.669C6.39109 119.105 4.68181 132.362 13.3035 138.408C20.2846 143.303 30.9066 139.522 33.1078 131.358C34.2461 127.135 32.6398 121.215 29.6139 118.482C26.3044 115.493 20.3342 114.238 16.235 115.669ZM225.444 116.331C217.932 120.299 215.924 129.985 221.338 136.144C226.926 142.501 237.469 142.027 242.282 135.202C243.777 133.081 244.137 131.891 244.302 128.518C244.48 124.866 244.299 124.067 242.662 121.27C239.248 115.437 231.399 113.185 225.444 116.331ZM202.785 116.154C202.785 116.49 203.182 116.766 203.667 116.766C204.153 116.766 204.721 116.49 204.929 116.154C205.137 115.817 204.74 115.542 204.046 115.542C203.353 115.542 202.785 115.817 202.785 116.154ZM97.4101 118.842C97.4101 120.08 99.2248 120.598 99.653 119.482C99.8509 118.969 99.8399 118.377 99.6304 118.167C99.4202 117.957 99.2481 118.261 99.2481 118.841C99.2481 119.422 98.9681 119.724 98.6256 119.513C98.2832 119.301 98.1613 118.872 98.3555 118.559C98.5491 118.246 98.4155 117.99 98.0589 117.99C97.7024 117.99 97.4101 118.373 97.4101 118.842ZM101.086 118.565C101.086 118.882 101.316 119.283 101.596 119.456C101.878 119.629 102.107 119.371 102.107 118.88C102.107 118.39 101.878 117.99 101.596 117.99C101.316 117.99 101.086 118.248 101.086 118.565ZM102.972 118.958C103.002 119.671 103.147 119.816 103.342 119.328C103.519 118.887 103.497 118.358 103.294 118.155C103.091 117.952 102.946 118.313 102.972 118.958ZM106.874 118.549C107.064 118.857 106.874 119.248 106.45 119.419C105.986 119.605 106.106 119.747 106.753 119.777C107.342 119.803 107.825 119.412 107.825 118.907C107.825 118.403 107.533 117.99 107.176 117.99C106.82 117.99 106.683 118.242 106.874 118.549ZM109.663 118.871C109.663 119.356 109.913 119.907 110.219 120.096C110.524 120.285 110.63 119.888 110.453 119.214C110.079 117.785 109.663 117.605 109.663 118.871ZM111.195 118.601C111.403 118.938 111.695 119.213 111.843 119.213C111.992 119.213 112.114 118.938 112.114 118.601C112.114 118.265 111.821 117.99 111.465 117.99C111.108 117.99 110.986 118.265 111.195 118.601ZM114.842 118.555C115.034 118.866 114.706 119.247 114.112 119.402C113.29 119.616 113.362 119.7 114.411 119.754C115.259 119.798 115.789 119.472 115.789 118.907C115.789 118.403 115.497 117.99 115.141 117.99C114.784 117.99 114.649 118.244 114.842 118.555ZM201.624 125.56C200.27 127.19 201.503 128.47 204.235 128.27C208.313 127.972 208.036 124.753 203.932 124.729C203.046 124.724 202.008 125.098 201.624 125.56ZM89.5542 126.352C89.6633 126.913 90.1657 127.484 90.6711 127.622C91.4265 127.828 91.4399 127.768 90.7458 127.283C90.2814 126.958 90.0909 126.386 90.3225 126.012C90.5541 125.638 90.4309 125.332 90.0499 125.332C89.6682 125.332 89.4452 125.791 89.5542 126.352ZM92.229 125.902C92.0348 126.215 92.1567 126.644 92.4992 126.855C92.8417 127.067 93.1217 126.81 93.1217 126.286C93.1217 125.211 92.7541 125.053 92.229 125.902ZM95.1127 126.286C94.2103 127.264 94.135 127.779 94.894 127.779C95.4166 127.779 96.395 125.938 96.0464 125.612C95.9539 125.526 95.5342 125.829 95.1127 126.286ZM97.2496 125.708C96.8594 126.339 97.7655 128.259 98.2188 127.762C98.3634 127.603 98.2881 126.941 98.0516 126.29C97.8151 125.64 97.4543 125.377 97.2496 125.708ZM99.2965 126.301C99.3259 127.013 99.4711 127.158 99.6665 126.671C99.8436 126.229 99.8215 125.701 99.6181 125.498C99.4147 125.295 99.2701 125.656 99.2965 126.301ZM101.699 126.214C101.699 126.699 101.971 127.264 102.305 127.469C102.644 127.678 102.759 127.449 102.566 126.947C102.357 126.403 102.66 125.938 103.339 125.762C104.234 125.531 104.182 125.46 103.077 125.403C102.252 125.361 101.699 125.686 101.699 126.214ZM203.091 126.556C202.883 126.892 203.126 127.168 203.631 127.168C204.137 127.168 204.721 126.892 204.929 126.556C205.137 126.219 204.894 125.944 204.389 125.944C203.883 125.944 203.299 126.219 203.091 126.556ZM39.5485 136.203C38.893 137.796 36.9252 140.532 35.1755 142.282L31.9946 145.467L33.7057 150.543C39.5087 167.755 51.4356 184.279 65.7953 195.001C72.9167 200.319 75.1522 201.712 82.5119 205.42C92.2934 210.349 94.9596 211.236 94.9596 209.565C94.9596 209.098 92.2695 207.685 88.68 206.268C82.9751 204.015 82.4194 203.656 82.6105 202.343C83.0167 199.553 85.259 195.226 87.3469 193.206C89.2118 191.4 89.9175 191.136 93.4758 190.909C97.064 190.681 97.5584 190.493 98.0663 189.158C98.3794 188.336 98.6354 187.13 98.6354 186.479C98.6354 185.349 98.0945 185.295 86.8004 185.295C73.6317 185.295 70.5862 184.752 66.2787 181.635C64.7588 180.536 63.0801 178.509 62.0919 176.581C60.6479 173.765 60.398 172.41 60.0874 165.715L59.7326 158.067L55.5201 157.651C50.1644 157.122 46.2153 155.128 43.8395 151.751C42.1749 149.386 41.9721 148.519 41.3828 141.24L40.7407 133.307L39.5485 136.203ZM151.127 133.719C150.948 134.009 150.607 135.958 150.37 138.05C149.897 142.224 150.257 142.59 153.42 141.151C155.536 140.187 156.963 141.396 156.715 143.942C156.566 145.458 156.218 145.866 154.946 146.014C154.065 146.116 153.012 145.776 152.574 145.249C151.704 144.202 150.355 144.001 149.836 144.839C149.652 145.137 150.069 146.101 150.763 146.981C152.495 149.18 156.245 149.229 158.396 147.081C161.651 143.83 159.541 138.415 155.215 138.92C153.257 139.148 153.116 139.051 153.284 137.603C153.449 136.199 153.768 136.021 156.415 135.852C158.766 135.702 159.324 135.46 159.169 134.656C159.02 133.883 158.1 133.596 155.215 133.42C153.147 133.294 151.307 133.428 151.127 133.719ZM162.963 140.894C162.963 148.175 163.028 148.583 164.188 148.583C165.314 148.583 165.413 148.175 165.413 143.566C165.413 140.785 165.644 138.808 165.931 139.13C166.215 139.449 167.094 141.501 167.883 143.688C170.146 149.96 170.957 149.855 173.737 142.931L175.522 138.487L175.7 143.535C175.86 148.08 175.997 148.583 177.078 148.583C178.207 148.583 178.279 148.122 178.279 140.894V133.205L176.594 133.399C175.113 133.569 174.67 134.184 172.933 138.487C171.846 141.179 170.875 143.606 170.775 143.88C170.676 144.154 169.636 141.951 168.464 138.985C166.565 134.181 166.149 133.571 164.648 133.399L162.963 133.205V140.894ZM135.853 135.192C133.509 136.94 133.592 138.405 136.007 137.875L137.845 137.472V143.028C137.845 148.175 137.935 148.583 139.07 148.583C140.227 148.583 140.295 148.175 140.295 141.24C140.295 134.028 140.271 133.899 138.917 133.918C138.158 133.928 136.78 134.502 135.853 135.192ZM92.5574 136.011C92.5838 136.7 92.7449 136.919 92.9146 136.498C93.0849 136.078 93.8213 135.738 94.551 135.743C95.5293 135.75 95.6598 135.891 95.0472 136.278C94.5062 136.621 94.4395 136.943 94.8567 137.2C95.2089 137.417 95.8056 137.107 96.183 136.511C96.6719 135.738 96.9611 135.647 97.1902 136.193C97.6387 137.258 99.6555 137.151 100.082 136.04C100.354 135.332 99.9122 135.103 98.157 135.043C96.9035 134.999 95.1201 134.918 94.1938 134.862C92.8576 134.78 92.5188 135.018 92.5574 136.011ZM101.699 135.734C101.699 136.655 102.018 136.986 102.771 136.841C103.36 136.727 103.843 136.229 103.843 135.734C103.843 135.238 103.36 134.74 102.771 134.626C102.018 134.482 101.699 134.812 101.699 135.734ZM105.648 135.175C105.071 136.107 106.323 137.194 107.467 136.756C108.017 136.545 108.265 135.996 108.055 135.451C107.638 134.362 106.249 134.203 105.648 135.175ZM109.969 135.122C109.487 135.903 110.128 136.96 111.078 136.948C111.518 136.942 111.443 136.7 110.888 136.336C110.072 135.8 110.072 135.667 110.888 135.131C111.443 134.768 111.518 134.525 111.078 134.519C110.676 134.514 110.178 134.785 109.969 135.122ZM112.989 135.734C112.989 136.407 113.205 136.957 113.47 136.957C113.735 136.957 113.951 136.407 113.951 135.734C113.951 135.061 113.735 134.51 113.47 134.51C113.205 134.51 112.989 135.061 112.989 135.734ZM102.311 135.734C102.311 136.07 102.587 136.346 102.924 136.346C103.261 136.346 103.537 136.07 103.537 135.734C103.537 135.397 103.261 135.122 102.924 135.122C102.587 135.122 102.311 135.397 102.311 135.734ZM106.293 135.734C106.085 136.07 106.207 136.346 106.564 136.346C106.92 136.346 107.212 136.07 107.212 135.734C107.212 135.397 107.091 135.122 106.942 135.122C106.793 135.122 106.502 135.397 106.293 135.734ZM201.968 135.53C201.123 136.374 201.607 138.163 202.862 138.835C203.808 139.34 204.564 139.349 205.619 138.869C207.267 138.119 207.564 136.053 206.104 135.493C204.816 134.999 202.478 135.02 201.968 135.53ZM203.244 137.362C203.666 137.533 204.355 137.533 204.776 137.362C205.197 137.193 204.852 137.054 204.01 137.054C203.168 137.054 202.823 137.193 203.244 137.362ZM89.719 142.517C89.0464 143.605 90.5277 144.688 91.4369 143.774C92.0514 143.156 91.9699 143.092 91.024 143.452C90.0879 143.808 89.9267 143.69 90.2392 142.877C90.6809 141.727 90.3494 141.499 89.719 142.517ZM94.2973 142.244C94.6239 142.409 94.739 142.938 94.5534 143.422C94.3678 143.905 94.5412 144.3 94.9388 144.3C95.8988 144.3 95.4865 142.304 94.4848 142.102C94.0553 142.015 93.9708 142.079 94.2973 142.244ZM105.873 142.27C106.314 142.447 106.843 142.425 107.046 142.222C107.25 142.019 106.888 141.874 106.243 141.901C105.529 141.93 105.384 142.075 105.873 142.27ZM109.944 142.505C109.316 143.521 109.88 143.662 110.759 142.708C111.194 142.238 111.279 141.852 110.948 141.852C110.618 141.852 110.166 142.146 109.944 142.505ZM97.4586 143.433C97.488 144.146 97.6332 144.291 97.8286 143.803C98.0056 143.361 97.9836 142.833 97.7802 142.63C97.5768 142.427 97.4322 142.788 97.4586 143.433ZM144.177 146.482C143.974 147.01 144.102 147.735 144.461 148.093C145.414 149.045 147.034 148.21 147.034 146.766C147.034 145.257 144.735 145.029 144.177 146.482ZM202.325 145.929C201.904 146.099 201.559 146.898 201.559 147.704C201.559 150.173 205.965 150.585 206.88 148.202C207.553 146.451 204.64 144.996 202.325 145.929ZM203.275 148.093C203.846 148.664 204.174 148.664 204.745 148.093C205.317 147.522 205.154 147.359 204.01 147.359C202.866 147.359 202.703 147.522 203.275 148.093ZM4.34792 162.809C3.36831 165.387 2.34703 171.293 2.71523 172.252C2.97867 172.938 3.57845 173.108 4.84845 172.854C6.55834 172.512 6.7648 172.755 11.2414 180.361C17.6508 191.25 23.7399 199.073 32.2507 207.351C42.8733 217.682 52.3815 224.574 64.1988 230.508C69.995 233.419 71.8624 233.708 71.5689 231.647C71.4206 230.611 69.9233 229.502 65.4609 227.123C48.2983 217.974 35.4113 206.199 21.2875 186.76C17.8469 182.025 12.2528 172.342 12.2528 171.122C12.2528 170.527 12.8042 169.747 13.4781 169.386C15.4962 168.308 14.9074 167.192 10.7647 164.239C6.34391 161.088 5.10638 160.813 4.34792 162.809ZM120 164.892C119.538 165.448 119.184 167.043 119.215 168.436C119.348 174.475 125.862 178.35 129.601 174.615C131.782 172.437 131.485 171.844 128.281 171.983C125.974 172.083 125.244 171.844 124.298 170.679C123.662 169.893 123.141 168.478 123.141 167.533C123.141 164.022 121.717 162.825 120 164.892ZM184.116 169.367C183.056 170.538 183.129 170.679 186.73 174.401C190.404 178.197 190.447 178.219 191.709 177.078C192.41 176.445 192.982 175.678 192.982 175.373C192.982 174.521 186.775 168.163 185.943 168.163C185.539 168.163 184.717 168.705 184.116 169.367ZM199.415 177.689C196.985 178.949 194.315 181.514 193.186 183.675C192.47 185.045 192.421 185.775 192.957 187.069C193.333 187.975 199.107 194.172 205.789 200.839C217.324 212.349 218.073 212.976 220.623 213.255C222.751 213.488 223.749 213.25 225.43 212.108C227.893 210.438 229.471 206.932 228.859 204.496C228.299 202.27 203.343 176.72 201.739 176.732C201.472 176.735 200.426 177.165 199.415 177.689ZM197.444 181.421C194.406 183.389 193.444 185.148 194.428 186.933C195.736 189.304 217.174 210.479 219.143 211.346C222.68 212.902 226.678 210.469 226.678 206.763C226.678 204.711 225.817 203.699 214.266 192.173C207.44 185.361 201.43 179.788 200.911 179.788C200.392 179.788 198.832 180.523 197.444 181.421ZM103.318 186.817C103.004 187.633 105.824 187.742 127.194 187.742C146.306 187.742 151.371 187.581 151.17 186.977C150.973 186.387 145.53 186.176 127.294 186.052C106.683 185.913 103.628 186.01 103.318 186.817ZM90.4126 197.03C89.2069 198.437 88.2205 199.814 88.2205 200.09C88.2205 200.366 105.727 200.592 127.123 200.592C148.52 200.592 166.026 200.44 166.026 200.255C166.026 200.07 165.608 199.111 165.097 198.124C163.172 194.407 163.871 194.473 126.589 194.473H92.6046L90.4126 197.03ZM108.214 211.038C106.093 212.704 106.045 214.215 108.131 213.692L109.663 213.308V218.881C109.663 224.418 109.673 224.454 111.195 224.454H112.726V217.112C112.726 209.799 112.72 209.77 111.277 209.77C110.48 209.77 109.102 210.34 108.214 211.038ZM122.427 213.741C122.214 217.869 122.955 219.147 124.717 217.687C126.753 216 130.254 218.465 128.896 220.63C128.094 221.906 125.719 222.379 124.786 221.447C123.851 220.513 121.916 220.62 121.916 221.606C121.916 224.249 127.878 225.494 130.423 223.384C133.862 220.532 131.741 215.032 127.203 215.032C125.291 215.032 124.979 214.835 124.979 213.624C124.979 212.344 125.254 212.217 128.042 212.217C130.697 212.217 131.105 212.054 131.105 210.993C131.105 209.888 130.697 209.77 126.869 209.77H122.633L122.427 213.741ZM134.781 217.073C134.781 224.046 134.849 224.454 136.007 224.454C137.132 224.454 137.232 224.046 137.232 219.437C137.232 214.028 137.644 213.873 139.349 218.642C140.607 222.159 141.927 224.454 142.691 224.454C142.982 224.454 144.147 222.183 145.281 219.406L147.341 214.358L147.518 219.406C147.674 223.816 147.837 224.454 148.812 224.454C149.734 224.454 149.998 223.771 150.331 220.53C150.552 218.372 150.552 215.068 150.331 213.188C149.953 209.98 149.827 209.77 148.272 209.77C146.781 209.77 146.444 210.214 144.903 214.206C143.961 216.645 142.983 218.873 142.729 219.156C142.475 219.439 141.434 217.512 140.416 214.873C138.705 210.436 138.423 210.061 136.674 209.884L134.781 209.692V217.073ZM116.811 221.803C116.586 222.027 116.402 222.715 116.402 223.333C116.402 224.613 118.59 224.912 119.017 223.689C119.605 222.007 117.989 220.626 116.811 221.803Z" fill="#353535"/>
</svg>
