<svg width="268" height="228" viewBox="0 0 268 228" fill="none" xmlns="http://www.w3.org/2000/svg">
<path fill-rule="evenodd" clip-rule="evenodd" d="M58.3707 0.910467C52.7378 3.38597 50.8705 8.73212 51.3363 21.0531C51.6655 29.7651 52.2444 31.5917 54.414 30.7587C56.1667 30.0854 56.5042 27.9966 56.5156 17.7728C56.5279 7.33271 57.0862 5.87293 61.6438 4.36806C65.5539 3.07643 189.602 4.08528 192.462 5.43194C193.512 5.92643 194.968 7.52607 195.696 8.98661C196.929 11.4575 197.014 16.8839 196.922 86.7935C196.855 137.867 197.077 162.199 197.616 162.739C198.911 164.035 201.138 163.139 201.707 161.092C201.999 160.044 202.272 130.209 202.314 94.7947L202.39 30.4041H209.322C215.965 30.4041 216.347 30.4973 218.486 32.6381L220.718 34.8721V98.6024C220.718 165.585 220.726 165.746 223.984 164.495C225.216 164.023 225.301 159.819 225.301 99.1572C225.301 58.8827 225.019 33.5827 224.556 32.3644C223.862 30.5378 223.963 30.4041 226.041 30.4041C227.296 30.4041 229.206 31.2096 230.413 32.2483L232.556 34.0925L232.937 102.288C233.3 167.025 233.389 170.527 234.701 171.331C235.807 172.009 236.301 171.882 237.183 170.695C238.121 169.43 238.282 159.524 238.279 103.438C238.276 58.35 238.013 36.7033 237.442 34.6076C236.984 32.9262 235.869 30.7442 234.964 29.7582C231.655 26.1531 230.035 25.8184 215.881 25.8184C200.393 25.8184 201.655 26.6843 201.637 16.0432C201.625 8.68931 200.117 4.86181 196.107 1.99881L193.608 0.214969L127.167 0.0453102C72.6661 -0.0945532 60.3036 0.0613513 58.3707 0.910467ZM75.8025 20.4669C61.3765 27.5617 57.1213 29.9852 56.5768 31.4175C56.1621 32.5089 56.1491 35.5523 56.5447 38.8998C56.9113 42.0036 57.7544 50.7339 58.4188 58.3003C59.0832 65.8667 59.8056 73.1816 60.0233 74.555C60.5051 77.5938 61.1069 77.9951 80.826 88.4336L95.5796 96.243L111.755 87.7274C120.652 83.0431 128.656 78.5331 129.542 77.7039C130.86 76.4696 131.248 74.9173 131.673 69.1585C131.959 65.2881 132.857 55.6727 133.67 47.7907C134.651 38.2784 134.909 32.8322 134.439 31.5956C133.882 30.1289 129.724 27.7688 114.917 20.5143C104.569 15.4448 95.7034 11.31 95.2154 11.3261C94.7281 11.3421 85.9916 15.4555 75.8025 20.4669ZM84.3955 35.9451C84.2092 36.4709 81.6852 43.2631 78.787 51.0396C71.4282 70.7871 71.7389 68.7519 76.1255 68.4714C79.7194 68.2421 79.8493 68.1481 80.9406 64.9878L82.0624 61.7396H88.705H95.3482L96.6602 65.1788C97.9661 68.6005 97.9921 68.6181 101.668 68.6181H105.364L103.051 62.3128C101.778 58.8445 98.9956 51.2789 96.868 45.4986L92.9984 34.9897H88.8669C86.2513 34.9897 84.6101 35.3406 84.3955 35.9451ZM109.766 35.4636C109.466 35.7632 109.221 43.3456 109.221 52.3137V68.6181H113.054H116.887L116.682 51.995L116.476 35.3719L113.393 35.1449C111.698 35.0203 110.065 35.1632 109.766 35.4636ZM148.621 36.9394C147.952 37.6089 147.405 38.4512 147.405 38.8112C147.405 39.1711 147.952 40.0134 148.621 40.6829C149.666 41.7292 151.979 41.8706 165.148 41.6925C178.765 41.5091 180.553 41.3379 181.302 40.1486C181.916 39.1734 181.916 38.4489 181.302 37.4737C180.553 36.2844 178.765 36.1133 165.148 35.9298C151.979 35.7517 149.666 35.8931 148.621 36.9394ZM86.5582 49.0334L84.2549 55.6253H88.7188C91.8048 55.6253 93.1695 55.3303 93.1389 54.67C93.1137 54.1449 92.1416 51.178 90.9777 48.0781L88.8615 42.4415L86.5582 49.0334ZM148.605 51.4761C146.989 53.0933 147.093 54.6402 148.882 55.5986C151.061 56.7649 179.675 56.6525 180.854 55.4725C182.23 54.0952 181.958 51.9583 180.294 51.0664C179.424 50.601 172.849 50.2754 164.31 50.2754C152.142 50.2754 149.612 50.4687 148.605 51.4761ZM28.8115 52.2808C28.5136 52.5789 28.27 54.8289 28.27 57.2815V61.7396H23.7147C20.0673 61.7396 19.0089 62.0208 18.4048 63.1512C17.228 65.3508 18.8859 66.3253 23.804 66.3253H28.1975L28.4243 71.102C28.6397 75.6273 28.7527 75.8788 30.5611 75.8788C32.3428 75.8788 32.4955 75.5731 32.8521 71.2931L33.234 66.7074L37.7977 66.4728C42.6372 66.2244 43.8989 65.3607 42.6999 63.1183C42.1172 62.0277 41.0174 61.7396 37.4441 61.7396H32.9247L32.6979 56.9628C32.5008 52.8258 32.2618 52.1563 30.9116 51.9629C30.054 51.8399 29.1093 51.9835 28.8115 52.2808ZM148.521 66.3581C147.422 67.5733 147.277 68.2444 147.901 69.2364C148.614 70.3691 150.628 70.554 164.191 70.7359C174.96 70.8804 179.986 70.6771 180.718 70.0695C181.985 69.0171 182.1 66.6195 180.92 65.8888C180.452 65.5992 173.293 65.2301 165.012 65.0673C150.55 64.7845 149.898 64.8349 148.521 66.3581ZM246.405 69.4382C243.943 71.3756 243.722 74.8256 245.92 77.0252C248.724 79.8316 253.493 78.2702 254.689 74.1538C255.067 72.8538 254.627 71.864 252.905 70.1413C250.202 67.4358 249.099 67.3165 246.405 69.4382ZM52.0237 83.426C51.3807 84.2018 51.2057 104.675 51.357 161.574L51.5624 238.671L53.2173 241.728C55.6733 246.265 57.3763 247.025 66.0724 247.46L73.7093 247.842L74.1377 253.574C74.3729 256.727 74.8441 259.921 75.1847 260.672C76.7571 264.143 77.0329 264.162 132.38 264.715C180.605 265.197 184.835 265.138 185.278 263.983C185.543 263.291 185.335 262.214 184.817 261.589C184.001 260.604 177.114 260.453 133.148 260.453H82.4222L80.548 258.576C79.0084 257.036 78.6732 255.943 78.6732 252.462V248.224H123.256C161.027 248.224 167.976 248.057 168.745 247.129C169.47 246.256 169.308 245.687 167.951 244.329L166.249 242.626L114.424 243.135C56.9693 243.699 58.292 243.794 56.6226 239.001C55.9887 237.18 55.7543 215.548 55.7703 160.148C55.7818 118.159 55.5931 83.4826 55.3503 83.0898C54.7057 82.0465 53.0264 82.2162 52.0237 83.426ZM247.079 88.9679C245.171 90.877 245.895 94.0511 248.442 94.9422C249.887 95.4482 251.004 95.4276 251.879 94.8796C253.474 93.8799 253.99 90.3145 252.755 88.8257C251.537 87.3568 248.615 87.4294 247.079 88.9679ZM18.5125 96.5579C16.3726 98.0574 16.2046 102.221 18.2115 104.039C19.4021 105.117 21.6359 105.304 33.3646 105.304H47.1216L47.282 100.336L47.4431 95.3679H33.8259C22.7379 95.3679 19.894 95.5888 18.5125 96.5579ZM242.102 120.207V126.703H252.45C266.325 126.703 268.977 125.299 267.723 118.614C266.946 114.464 264.598 113.711 252.45 113.711H242.102V120.207ZM18.1123 117.506C16.5162 117.816 14.8406 118.438 14.3893 118.889C13.1277 120.152 13.4156 123.527 14.9285 125.2C16.1932 126.599 17.3425 126.703 31.4432 126.703H46.5985V121.736V116.768L33.8068 116.856C26.7709 116.904 19.7091 117.197 18.1123 117.506ZM88.8875 121.868L84.1542 126.968L82.177 125.672C81.0903 124.959 80.2006 124.048 80.2006 123.646C80.2006 123.245 79.3437 122.355 78.2967 121.669C75.901 120.098 72.896 120.764 72.3125 122.996C71.9711 124.303 73.0341 125.847 77.3146 130.265C80.3036 133.35 83.2927 135.869 83.9571 135.863C85.0072 135.854 96.4388 124.225 98.0677 121.511C98.852 120.203 96.5671 116.768 94.9122 116.768C94.202 116.768 91.4909 119.063 88.8875 121.868ZM110.324 120.722C109.19 124.298 110.238 124.411 144.469 124.411C175.918 124.411 176.383 124.388 177.214 122.833C179.206 119.11 178.771 119.061 143.544 119.061H110.851L110.324 120.722ZM110.911 133.724C109.519 135.117 109.794 137.247 111.483 138.152C112.458 138.674 120.771 138.885 135.265 138.752C155.527 138.568 157.625 138.428 158.391 137.212C159.006 136.237 159.006 135.513 158.391 134.537C157.624 133.32 155.5 133.182 134.694 132.998C117.558 132.846 111.607 133.028 110.911 133.724ZM1.27765 140.33C-0.300124 142.075 -0.462008 149.05 1.04627 150.302C2.1895 151.252 30.6344 151.985 40.6799 151.324L46.5985 150.934V144.933V138.932H24.57C4.19874 138.932 2.44608 139.037 1.27765 140.33ZM88.7027 160.849L84.1008 165.952L80.5893 162.713C77.9447 160.273 76.5669 159.532 75.0113 159.711C73.3335 159.905 72.9028 160.386 72.718 162.273C72.5225 164.272 73.2312 165.312 77.8011 169.727C81.9876 173.772 83.4218 174.735 84.581 174.282C85.3898 173.966 88.6866 170.877 91.9078 167.418C97.7622 161.134 98.8811 158.697 96.8489 156.663C95.0627 154.876 93.2505 155.807 88.7027 160.849ZM111.703 158.063C109.321 159.021 109.461 161.699 111.943 162.644C113.099 163.083 126.515 163.389 144.636 163.389C177.39 163.389 178.736 163.244 177.651 159.822C177.186 158.357 176.308 158.258 159.42 157.781C135.311 157.098 113.784 157.226 111.703 158.063ZM206.869 168.669C205.43 169.836 204.993 171.083 204.684 174.914C204.329 179.327 204.134 179.756 202.172 180.406C200.288 181.032 199.66 180.756 196.653 177.983C191.812 173.518 190.004 173.715 183.364 179.435C174.392 187.163 173.76 189.29 178.752 194.967C181.807 198.44 181.829 198.508 180.642 200.807C179.523 202.971 179.15 203.132 175.225 203.132C171.768 203.132 170.673 203.469 169.135 205.008C167.393 206.751 167.264 207.412 167.303 214.37C167.327 218.488 167.757 223.06 168.258 224.531C169.142 227.123 169.322 227.223 174.072 227.748C180.371 228.443 180.711 228.597 181.323 231.037C181.747 232.728 181.302 233.658 178.748 236.431C176.844 238.499 175.661 240.521 175.661 241.709C175.661 245.379 186.946 255.867 190.896 255.867C192.273 255.867 194.211 254.809 196.451 252.837C199.654 250.015 200.049 249.867 202.205 250.681C204.4 251.511 204.537 251.813 204.835 256.488C205.281 263.511 206.393 264.274 216.185 264.274C220.319 264.274 224.538 263.892 225.563 263.426C227.986 262.32 229.119 259.713 229.119 255.234C229.119 251.898 229.301 251.547 231.463 250.731C233.614 249.919 234.094 250.063 237.25 252.474C242.462 256.455 244.212 256.037 251.516 249.067C258.293 242.602 258.621 240.162 253.435 234.78C250.653 231.891 250.494 231.5 251.349 229.622C252.195 227.765 252.654 227.589 256.65 227.589C259.819 227.589 261.521 227.186 262.827 226.127C264.543 224.737 264.63 224.219 264.63 215.36C264.63 206.501 264.543 205.983 262.827 204.593C261.521 203.534 259.819 203.132 256.65 203.132C252.702 203.132 252.188 202.941 251.389 201.185C250.219 198.615 250.081 198.981 253.557 195.398C258.433 190.369 257.595 187.218 249.46 180.012C243.047 174.331 240.412 174.071 236.143 178.698C233.436 181.632 233.183 181.738 230.828 180.916C228.426 180.078 228.355 179.928 228.355 175.646C228.355 172.344 227.958 170.733 226.772 169.224C225.237 167.271 224.944 167.21 216.929 167.21C209.939 167.21 208.392 167.434 206.869 168.669ZM111.321 172.621C109.399 173.742 109.631 176.266 111.703 176.772C112.647 177.003 123.554 177.096 135.94 176.978C157.505 176.773 158.47 176.701 158.742 175.286C159.363 172.059 157.512 171.795 134.467 171.819C121.079 171.833 112.141 172.143 111.321 172.621ZM211.331 173.803C211.033 174.1 210.791 175.812 210.791 177.606C210.791 183.06 209.898 184.352 204.861 186.19C202.366 187.101 199.743 187.846 199.033 187.846C198.323 187.846 196.102 186.31 194.096 184.433L190.45 181.019L186.367 185.156L182.284 189.294L185.082 192.393C186.621 194.099 187.88 196.177 187.88 197.011C187.88 197.847 186.999 200.73 185.924 203.42C183.8 208.729 182.95 209.246 176.329 209.246H173.37V215.742V222.239L177.761 222.25C180.176 222.257 182.525 222.514 182.981 222.823C184.201 223.649 187.885 232.094 187.851 233.986C187.836 234.881 186.645 236.989 185.206 238.671L182.589 241.728L186.494 245.688L190.399 249.649L193.831 247.026C195.719 245.583 198.028 244.403 198.961 244.403C200.741 244.403 208.335 247.234 209.638 248.384C210.055 248.751 210.571 251.015 210.784 253.414L211.172 257.778L216.66 258.002L222.147 258.225L222.674 252.869L223.201 247.514L228.155 245.194C234.609 242.172 236.339 242.227 239.38 245.549C240.726 247.02 242.07 248.224 242.364 248.224C243.311 248.224 249.738 241.947 249.738 241.022C249.738 240.529 248.364 238.784 246.684 237.142C244.969 235.467 243.629 233.427 243.629 232.494C243.629 230.548 247.318 222.115 248.528 221.295C248.984 220.986 251.505 220.728 254.13 220.721L258.903 220.71V216.569C258.903 210.412 258.603 210.01 254.027 210.01C250.012 210.01 246.684 208.496 246.684 206.67C246.684 206.142 245.309 203.429 243.629 200.642C240.045 194.695 239.859 193.645 242.48 194.147C243.853 194.409 245.146 193.847 247.109 192.134L249.832 189.757L245.695 185.687L241.556 181.618L239.125 184.69C237.788 186.38 236.011 187.98 235.175 188.245C234.299 188.523 231.406 187.867 228.331 186.69C222.535 184.474 222.418 184.302 222.063 177.528L221.864 173.707L216.868 173.484C214.119 173.362 211.628 173.506 211.331 173.803ZM23.4657 176.094C23.1679 176.392 22.9243 178.41 22.9243 180.578V184.521L18.1512 185.227C14.1419 185.822 13.3415 186.194 13.1476 187.555C12.8803 189.429 14.6138 190.112 19.6786 190.128L22.9243 190.139V194.249C22.9243 196.97 23.3114 198.68 24.0698 199.31C26.0928 200.99 27.5064 198.908 27.5064 194.249V190.139H31.6524C36.0489 190.139 38.492 188.738 37.6993 186.67C37.1601 185.265 34.9118 184.697 30.9429 184.965L27.8882 185.171L27.5064 180.585C27.1833 176.703 26.8855 175.965 25.5658 175.776C24.7082 175.653 23.7635 175.797 23.4657 176.094ZM211.725 191.715C197.814 194.458 188.875 209.07 192.813 222.628C196.143 234.092 205.206 240.847 217.282 240.868C224.514 240.88 230.186 238.699 234.722 234.159C241.579 227.296 243.934 216.467 240.554 207.335C238.311 201.277 231.821 194.699 226.393 192.986C221.408 191.414 215.744 190.923 211.725 191.715ZM88.7286 198.928C85.9985 201.66 83.5639 203.895 83.3187 203.894C83.0743 203.894 81.5806 202.518 80.0005 200.837C78.4205 199.157 76.4684 197.782 75.6635 197.782C74.0262 197.782 71.8 199.695 71.8 201.103C71.8 201.609 74.3599 204.568 77.4895 207.679C82.2167 212.379 83.4249 213.215 84.6353 212.628C85.4364 212.239 88.7188 209.091 91.9285 205.632C98.0777 199.008 99.1652 196.293 96.2884 194.751C95.4758 194.316 94.5594 193.96 94.2516 193.96C93.9439 193.96 91.4588 196.196 88.7286 198.928ZM110.695 197.464C109.967 198.342 109.911 199.024 110.494 199.948C111.212 201.088 113.984 201.242 137.087 201.422C155.485 201.566 163.179 201.374 163.924 200.755C165.338 199.581 165.246 197.287 163.761 196.717C163.097 196.462 151.111 196.253 137.126 196.253C114.857 196.253 111.574 196.404 110.695 197.464ZM211.833 197.85C207.166 199.203 202.176 203.299 199.936 207.613C194.048 218.957 201.419 232.827 214.443 234.911C221.817 236.091 231.456 230.37 234.204 223.18C236.094 218.236 235.917 211.915 233.764 207.465C230.025 199.734 220.195 195.425 211.833 197.85ZM110.494 211.284C109.478 212.3 110.019 214.56 111.461 215.333C112.297 215.78 118.063 216.124 124.733 216.124C137.342 216.124 138.926 215.668 137.87 212.34C137.395 210.842 136.806 210.774 124.188 210.774C116.936 210.774 110.773 211.004 110.494 211.284Z" fill="#DF0E62"/>
</svg>
