<svg width="236" height="248" viewBox="0 0 236 248" fill="none" xmlns="http://www.w3.org/2000/svg">
<path fill-rule="evenodd" clip-rule="evenodd" d="M142.299 0.428888C141.187 0.734925 136.096 3.03726 130.986 5.54541C120.828 10.5301 117.082 13.7465 115.571 18.7796C114.534 22.2362 115.656 23.422 120.117 23.5814C123.134 23.6897 123.457 23.5444 124.339 21.6806C126.075 18.0135 128.066 16.5129 136.497 12.519C143.653 9.12839 145.392 8.56475 148.692 8.56475C153.341 8.56475 156.355 10.3095 158.603 14.3021C160.321 17.3517 160.148 20.6394 158.051 24.819C156.482 27.9452 154.458 29.3658 145.495 33.6281C138.297 37.051 134.7 37.8225 131.465 36.6367C129.482 35.9103 125.522 38.6632 125.252 40.9555C124.988 43.1966 126.488 44.6582 130.029 45.6099C134.937 46.9296 138.901 46.074 149.278 41.4559C160.629 36.404 163.925 33.8454 166.927 27.7562C168.655 24.2533 169.041 22.6438 169.06 18.8798C169.073 16.1881 168.649 13.2528 168.037 11.8C166.448 8.02868 161.901 3.52222 157.99 1.84272C154.204 0.216358 145.816 -0.538993 142.299 0.428888ZM50.1452 8.98445C49.8824 9.24677 49.6675 11.0756 49.6675 13.049V16.636H46.0445C42.222 16.636 40.5661 17.6503 41.295 19.5457C41.5861 20.3038 42.7953 20.6656 45.517 20.8082L49.3307 21.008L49.5335 24.9098C49.867 31.3083 53.4691 30.9525 53.845 24.4847L54.0465 21.008L57.8602 20.8082C60.3933 20.675 61.7979 20.2863 62.0424 19.6507C62.6993 17.9409 60.5442 16.636 57.0633 16.636H53.777L53.5749 12.7685C53.4024 9.46739 53.1714 8.87214 51.9978 8.70466C51.2413 8.59637 50.4079 8.72281 50.1452 8.98445ZM183.865 11.3897C183.421 11.8336 183.057 13.3201 183.057 14.6935C183.057 17.1089 182.963 17.2057 180.194 17.6618C178.619 17.9214 176.948 18.442 176.48 18.8193C174.991 20.0199 176.893 21.3443 180.107 21.3443H183.057V24.2889C183.057 26.0855 183.451 27.5592 184.067 28.0704C185.713 29.4344 187.099 27.7226 187.099 24.3253V21.4183L190.299 21.2131C192.981 21.0409 193.499 20.7907 193.499 19.6628C193.499 18.5348 192.981 18.2846 190.299 18.1124L187.099 17.9073V15.052C187.099 12.5103 186.227 10.5826 185.078 10.5826C184.855 10.5826 184.31 10.9458 183.865 11.3897ZM93.1201 21.9146C81.4189 26.7453 76.8042 29.2945 74.3513 32.2836C71.158 36.1739 69.878 39.389 69.878 43.5188C69.878 46.0068 70.2351 47.2598 71.2254 48.2486C72.8335 49.8541 73.2646 49.885 76.2996 48.6192C78.4271 47.732 78.6359 47.3977 78.6359 44.8862C78.6359 39.1993 80.9386 36.8936 91.099 32.4046C99.0936 28.8734 101.83 28.4867 105.484 30.3734C107.602 31.4664 107.844 31.4502 111.688 29.9624C113.888 29.1102 115.688 28.2163 115.688 27.9755C115.688 27.0292 110.614 23.161 107.784 21.9496C102.539 19.7045 98.4974 19.695 93.1201 21.9146ZM126.467 25.3174C108.677 32.8089 99.8077 36.8929 99.0148 37.9577C97.8062 39.5814 97.9773 42.4897 99.3517 43.6822C102.114 46.0794 103.867 45.7956 114.889 41.1653C138.115 31.4078 141.21 29.4788 140.148 25.425C139.775 23.9991 136.79 21.9987 135.091 22.0357C134.609 22.0465 130.728 23.5235 126.467 25.3174ZM23.1696 42.6437C22.9223 42.8899 22.7202 44.375 22.7202 45.9435V48.7947L19.3141 49.2629C16.329 49.6725 15.9328 49.9092 16.1141 51.1757C16.2865 52.3864 16.8376 52.6535 19.5202 52.8256L22.7202 53.0308V55.886C22.7202 59.2706 23.7099 60.5943 25.518 59.6277C26.443 59.134 26.7623 58.1917 26.7623 55.96V52.9568H29.3749C32.2111 52.9568 34.2409 51.4105 33.0134 50.185C32.6294 49.8016 31.0658 49.32 29.5385 49.1156C26.858 48.7571 26.7623 48.6589 26.7623 46.2765C26.7623 43.0991 24.7507 41.0651 23.1696 42.6437ZM113.149 44.4403C111.871 44.903 110.511 46.0814 109.91 47.2477C108.437 50.1083 107.859 50.5684 102.215 53.3799C98.8161 55.0722 95.7717 56.0488 92.9153 56.3616C83.4022 57.4028 82.643 64.2526 91.9661 64.9211C95.4187 65.1687 96.6428 64.8425 103.862 61.7471C115.134 56.9151 118.027 54.4218 119.778 48.0293C120.94 43.7899 118.537 42.489 113.149 44.4403ZM79.9294 49.0813C75.698 51.7582 68.1534 56.3784 63.1634 59.3479C55.3359 64.0057 54.0054 65.0469 53.4617 66.939C52.9241 68.8102 53.0616 69.3765 54.3988 70.797C57.2472 73.8244 59.793 73.1814 69.9616 66.867C74.9179 63.7898 81.5273 59.7791 84.6505 57.955C90.8127 54.3552 95.478 50.4023 95.478 48.7799C95.478 48.2176 94.8494 46.9599 94.0814 45.9852C91.6131 42.8522 88.8024 43.467 79.9294 49.0813ZM170.883 48.4557C166.142 49.7936 161.741 52.6905 158.793 56.4133C155.256 60.8815 153.88 65.7162 154.187 72.6043L154.425 77.9724L135.899 85.6953C125.709 89.9428 116.918 93.55 116.362 93.7121C115.727 93.897 114.601 92.8653 113.331 90.9322C110.969 87.3405 105.07 83.1481 100.634 81.9078C96.0634 80.6299 87.193 81.2756 83.2143 83.1757C79.1823 85.1 73.8285 90.343 71.961 94.195C69.785 98.682 68.9315 104.569 69.8309 108.888C70.7289 113.202 73.2033 118.632 75.2345 120.746C76.0469 121.591 76.6142 122.531 76.495 122.834C75.8408 124.499 65.9842 134.228 65.4493 133.737C64.0345 132.436 56.8065 130.307 53.8066 130.307C45.5419 130.307 37.7528 135.527 35.3019 142.707C32.967 149.549 34.2833 157.431 38.6016 162.467C45.6591 170.699 58.7023 171.626 66.8411 164.474C68.5462 162.975 70.7222 160.198 71.6754 158.303C72.6287 156.408 73.4903 154.764 73.5907 154.65C73.6911 154.536 80.1348 156.038 87.9098 157.987L102.046 161.531L102.365 167.619C102.74 174.779 104.001 178.089 108.419 183.504L111.473 187.246L109.502 189.885C108.419 191.336 107.024 192.523 106.404 192.523C105.676 192.523 103.713 189.842 100.882 184.982C94.1205 173.376 90.9212 170.826 83.9634 171.494C79.728 171.9 76.0523 174.349 73.4432 178.502C69.6059 184.612 48.0857 222.098 44.8298 228.345C42.2806 233.234 41.584 235.258 41.5861 237.762C41.5894 241.968 43.5027 245.037 47.1554 246.692C49.8494 247.913 51.9601 247.984 85.8995 247.998C124.746 248.014 124.781 248.011 127.646 244.375C129.408 242.138 130.071 238.276 129.201 235.315C128.833 234.065 124.455 225.893 119.471 217.154C114.487 208.416 110.319 200.813 110.209 200.258C110.099 199.703 111.51 197.184 113.343 194.66C116.289 190.605 116.873 190.121 118.372 190.492C122.788 191.587 131.053 191.647 134.626 190.61C141.853 188.513 147.961 182.939 150.457 176.164C151.095 174.434 151.794 172.806 152.01 172.548C152.364 172.127 170.613 170.435 181.589 169.805L185.848 169.561L187.238 172.298C188.002 173.803 189.806 176.447 191.247 178.173L193.866 181.311L189.437 185.218C178.549 194.821 167.114 201.853 154.933 206.436C147.888 209.086 135.174 212.347 131.839 212.359C129.627 212.367 127.141 214.126 127.141 215.683C127.141 218.812 130.384 219.213 140.59 217.346C160.16 213.766 180.966 202.865 195.919 188.359L199.686 184.704L205.055 185.79C214.76 187.753 223.215 185.181 229.453 178.366C234.788 172.538 236.993 164.881 235.585 157.078C234.131 149.027 228.663 142.101 220.93 138.516C217.545 136.947 216.246 136.732 210.219 136.746C203.516 136.762 203.342 136.723 202.573 135.048C202.141 134.105 200.027 128.945 197.876 123.581C195.726 118.217 191.959 109.019 189.504 103.141C187.049 97.2628 185.125 92.42 185.228 92.379C190.459 90.2946 195.555 85.6307 197.986 80.7019C199.32 77.998 199.562 76.4738 199.561 70.7809C199.561 64.8041 199.362 63.6789 197.776 60.6784C195.55 56.4665 190.077 51.2861 185.908 49.4451C182.03 47.732 175.07 47.274 170.883 48.4557ZM52.3461 51.1562C39.7503 58.4285 30.9634 63.9708 28.941 65.9193C21.3419 73.24 21.6504 85.5715 29.5756 91.3035C33.1381 93.8802 36.5274 94.7715 42.5144 94.7049C50.5784 94.6154 50.4173 94.6827 70.3853 83.0452C78.0599 78.5724 81.3306 74.7446 81.3306 70.2341C81.3306 68.4174 79.4315 66.409 77.7136 66.409C75.6158 66.409 71.2254 69.0698 71.2254 70.341C71.2254 72.186 68.9989 73.8863 59.4359 79.3412C49.2162 85.1706 47.3103 85.9146 42.5932 85.9146C34.2449 85.9146 30.8657 78.793 36.1669 72.3716C37.3264 70.9672 42.1721 67.5739 47.7853 64.2364C60.0362 56.9514 60.3299 56.8055 61.876 57.209C63.2443 57.5662 69.2569 53.9314 69.719 52.4678C69.8625 52.0132 69.1552 50.8785 68.1467 49.9456C66.5696 48.486 65.6877 48.2486 61.8477 48.2486C57.8083 48.2486 56.9016 48.5257 52.3461 51.1562ZM173.446 53.0019C166.936 54.5697 161.768 59.1932 159.753 65.2501C156.814 74.0834 162.011 84.4537 170.954 87.6041C180.72 91.0445 191.829 85.0792 194.573 74.9221C197.81 62.9423 185.443 50.111 173.446 53.0019ZM173.331 57.7586C163.335 60.0582 160.055 73.1276 167.678 80.2848C170.875 83.286 172.377 83.8967 176.569 83.8967C181.016 83.8967 183.416 83.0735 186.005 80.6588C190.57 76.4026 191.598 70.2832 188.718 64.5136C185.956 58.9787 179.791 56.2721 173.331 57.7586ZM168.587 63.4636C167.274 64.7745 167.471 66.3323 169.078 67.3425C171.412 68.8102 174.041 65.503 172.251 63.3499C171.191 62.074 169.94 62.113 168.587 63.4636ZM155.099 84.2862C153.987 84.7785 145.196 88.457 135.562 92.4604L118.046 99.7387L117.643 105.774C117.046 114.707 114.029 120.508 107.681 124.926C105.821 126.221 104.285 127.453 104.268 127.666C104.235 128.062 114.266 145.104 114.531 145.103C114.612 145.103 116.345 144.469 118.383 143.694C121.026 142.689 123.64 142.284 127.498 142.282L132.908 142.279L135.289 138.143C136.599 135.868 142.481 125.682 148.359 115.509C154.239 105.336 160.021 95.3028 161.209 93.2137L163.369 89.4148L160.245 86.4029C157.224 83.4905 157.053 83.4199 155.099 84.2862ZM219.913 84.9891C219.651 85.2514 219.436 86.7614 219.436 88.344V91.2214L216.236 91.4266C213.326 91.6129 213.036 91.7844 213.036 93.3132C213.036 94.8421 213.326 95.0136 216.236 95.1999L219.436 95.405V97.9758C219.436 100.739 220.788 102.457 222.458 101.817C223.158 101.549 223.478 100.483 223.478 98.4156V95.405L226.678 95.1999C229.587 95.0136 229.878 94.8421 229.878 93.3132C229.878 91.7871 229.585 91.6129 226.713 91.4279L223.548 91.2248L223.345 88.0649C223.178 85.4787 222.892 84.87 221.766 84.7093C221.009 84.601 220.176 84.7274 219.913 84.9891ZM85.4933 87.9781C67.7815 96.8148 72.7297 122.551 92.4336 124.074C103.566 124.933 112.667 116.364 112.6 105.084C112.552 97.0052 108.923 91.1521 101.907 87.8382C96.1645 85.1263 91.124 85.1693 85.4933 87.9781ZM86.2896 92.6178C78.4621 97.1 76.9119 108.432 83.219 115.067C92.1547 124.466 108.3 117.984 108.274 105.006C108.252 93.8406 96.1065 86.9961 86.2896 92.6178ZM168.424 93.4518C167.693 94.3618 143.671 135.694 140.661 141.219L138.931 144.396L140.615 145.572C147.148 150.133 151.084 156.08 151.851 162.552L152.276 166.13L156.719 165.695C159.163 165.456 165.255 164.965 170.257 164.603C175.259 164.241 180.599 163.779 182.124 163.577L184.896 163.209L185.26 159.202C185.8 153.25 189.02 146.913 193.789 142.414L197.71 138.714L193.731 129.298C191.542 124.119 187.297 114.067 184.297 106.962L178.842 94.0424L175.728 93.6347C174.016 93.4101 171.829 93.0812 170.869 92.9036C169.884 92.7213 168.819 92.9601 168.424 93.4518ZM85.3498 98.0645C84.7974 99.095 84.8122 99.7017 85.4084 100.419C86.5092 101.742 87.6363 101.629 89.0665 100.052C90.0548 98.9611 90.1202 98.534 89.4256 97.698C88.2231 96.2519 86.2249 96.4314 85.3498 98.0645ZM9.58205 111.642C9.41969 112.105 9.20145 113.996 9.09837 115.846L8.90972 119.209L5.09197 119.408C0.826205 119.632 -0.943565 120.848 0.488685 122.572C1.0438 123.24 2.55151 123.581 4.94982 123.581C8.49137 123.581 8.57288 123.624 8.57288 125.514C8.57288 128.838 9.39679 131.751 10.4504 132.155C12.0248 132.758 13.2887 130.38 13.2887 126.815V123.581H16.9117C19.31 123.581 20.8177 123.24 21.3729 122.572C22.8536 120.79 21.0185 119.545 16.9117 119.545H13.2887V115.98C13.2887 112.439 12.4937 110.801 10.7751 110.801C10.2813 110.801 9.74508 111.18 9.58205 111.642ZM76.1756 132.71C72.2743 136.83 70.6642 138.997 70.9775 139.706C71.2268 140.27 71.9624 142.245 72.6112 144.095C74.001 148.055 74.1566 148.125 91.2695 152.538C97.1042 154.042 102.361 155.411 102.951 155.581C103.661 155.785 104.974 154.621 106.827 152.148L109.629 148.406L103.889 139.429C97.6668 129.697 96.7209 128.6 95.0987 129.221C94.1528 129.584 87.9354 128.509 83.4319 127.205C82.0454 126.804 81.0592 127.552 76.1756 132.71ZM46.892 136.894C36.5786 142.274 36.2498 156.399 46.2985 162.424C49.1455 164.131 50.6895 164.606 53.3432 164.595C62.3665 164.556 69.139 157.143 68.3899 148.125C67.9769 143.157 65.3556 139.412 60.5266 136.893C55.7044 134.379 51.7142 134.379 46.892 136.894ZM49.297 139.957C48.1673 140.47 46.4622 141.816 45.5076 142.949C40.8416 148.485 43.6664 158.107 50.4975 159.944C62.3678 163.135 69.5762 148.275 59.7216 140.929C57.5099 139.28 51.9331 138.761 49.297 139.957ZM205.255 141.947C199.177 143.657 195.351 146.965 191.964 153.44C189.636 157.887 189.487 164.671 191.613 169.4C196.343 179.925 208.672 184.744 218.762 180.014C224.089 177.517 226.516 175.197 228.933 170.296C230.905 166.295 231.04 165.585 230.755 160.674C230.407 154.67 228.826 151.279 224.375 146.987C219.496 142.283 211.528 140.183 205.255 141.947ZM207.39 146.568C203.033 147.327 198.677 150.386 196.786 154.017C192.691 161.874 195.754 171.628 203.444 175.219C207.699 177.207 211.201 177.586 214.919 176.462C219.499 175.077 222.418 172.593 224.527 168.289C226.095 165.09 226.303 163.989 225.991 160.548C225.111 150.863 217.136 144.869 207.39 146.568ZM123.198 147.165C114.058 148.982 107.304 157.395 107.304 166.964C107.304 175.038 111.367 181.422 118.714 184.893C128.462 189.497 140.084 185.492 145.196 175.768C146.733 172.844 146.997 171.51 147.005 166.627C147.013 161.545 146.794 160.513 145.028 157.329C140.84 149.781 131.625 145.49 123.198 147.165ZM205.181 152.427C203.142 153.717 201.63 155.367 200.67 157.347C199.057 160.674 198.899 162.072 199.922 163.981C201.049 166.082 203.005 165.493 205.666 162.25C207.034 160.582 209.632 158.135 211.437 156.812C215.011 154.192 215.365 153.294 213.488 151.598C211.656 149.943 208.626 150.245 205.181 152.427ZM120.559 153.253C110.601 158.174 108.921 171.603 117.391 178.574C128.018 187.32 144.249 178.39 142.387 164.823C141.872 161.08 139.294 156.445 136.738 154.667C132.186 151.502 125.317 150.901 120.559 153.253ZM123.773 156.62C119.993 158.12 116.362 162.94 116.362 166.459C116.362 170.2 119.59 171.252 121.521 168.141C123.275 165.313 126.596 161.913 128.657 160.836C131.726 159.231 130.701 155.821 127.175 155.908C126.23 155.932 124.699 156.252 123.773 156.62ZM23.1696 176.493C22.9223 176.739 22.7202 178.692 22.7202 180.832V184.724L18.5097 184.924C14.5208 185.113 14.2992 185.213 14.2992 186.806C14.2992 188.398 14.5208 188.498 18.5097 188.688L22.7202 188.887V192.912C22.7202 195.884 22.987 197.039 23.7395 197.327C25.6447 198.057 26.7623 196.25 26.7623 192.441V188.823H30.8253C33.8313 188.823 34.9907 188.558 35.2797 187.806C36.0106 185.904 34.2011 184.788 30.3854 184.788H26.7623V181.223C26.7623 177.775 25.9674 176.044 24.3822 176.044C23.9618 176.044 23.4161 176.246 23.1696 176.493ZM82.2388 177.019C80.7621 177.66 79.2921 179.343 77.4145 182.542C59.9931 212.218 46.6373 235.959 46.4352 237.611C46.2722 238.942 46.6535 240.229 47.53 241.31L48.874 242.968L84.9894 243.153L121.105 243.339L122.776 241.671C125.761 238.69 125.86 238.937 112.572 216.064C108.488 209.035 101.986 197.717 98.1235 190.913C89.6587 176.005 87.9711 174.529 82.2388 177.019ZM81.3569 194.331C79.7502 196.053 79.7475 196.108 80.7236 209.674C81.5556 221.234 82.1997 223.126 85.306 223.126C88.345 223.126 88.9763 221.646 89.8581 212.45C91.1078 199.416 91.0202 195.807 89.4148 194.204C87.5164 192.309 83.1799 192.378 81.3569 194.331ZM192.202 218.537C192.046 219.026 191.73 220.562 191.5 221.949C191.1 224.353 190.958 224.472 188.498 224.472C187.025 224.472 185.556 224.905 185.078 225.481C183.77 227.054 185.421 228.507 188.516 228.507C191.247 228.507 191.468 228.809 191.963 233.216C192.094 234.386 192.561 234.897 193.499 234.897C194.568 234.897 194.972 234.245 195.458 231.736C196.059 228.634 196.122 228.57 198.821 228.373C200.884 228.221 201.632 227.856 201.812 226.906C202.113 225.323 200.852 224.495 198.119 224.482C196.128 224.472 195.968 224.283 195.42 221.285C195.016 219.082 194.473 218.029 193.661 217.872C193.013 217.748 192.357 218.047 192.202 218.537ZM82.4321 227.884C78.2128 231.197 82.04 237.81 87.0711 235.901C90.7278 234.512 90.942 229.33 87.4173 227.51C84.8674 226.194 84.5535 226.218 82.4321 227.884Z" fill="#353535"/>
</svg>
